<svg xmlns="http://www.w3.org/2000/svg" width="302.809" height="291.283" viewBox="0 0 302.809 291.283">
  <g id="Group_257" data-name="Group 257" transform="translate(-333 -1274.728)">
    <g id="Group_9" data-name="Group 9" transform="translate(471.032 1508.114)">
      <path id="Path_1" data-name="Path 1" d="M0,11.534a107.129,107.129,0,0,0,12.5.758A105.9,105.9,0,0,0,47.183,6.462a67.665,67.665,0,0,1-35.574-18.42A46.194,46.194,0,0,1,0,11.534" transform="translate(0 11.958)" fill="#64d3f1"/>
    </g>
    <g id="Group_10" data-name="Group 10" transform="translate(381.842 1456.517)">
      <path id="Path_2" data-name="Path 2" d="M0,0A105.535,105.535,0,0,0,12.08,26.514a46.071,46.071,0,0,1,4.041-7.858A88.164,88.164,0,0,1,0,0" fill="#64d3f1"/>
    </g>
    <g id="Group_11" data-name="Group 11" transform="translate(367.897 1375.381)">
      <path id="Path_3" data-name="Path 3" d="M8.052,6.559A68.073,68.073,0,0,1-1.633-6.8,87.758,87.758,0,0,0,5.6,74.336,106.163,106.163,0,0,1,8.052,6.559" transform="translate(8.348 6.8)" fill="#5697d1"/>
    </g>
    <g id="Group_12" data-name="Group 12" transform="translate(377.444 1388.739)">
      <path id="Path_4" data-name="Path 4" d="M10.075,42.437A46.308,46.308,0,0,1,45.4,21.241,94.812,94.812,0,0,1,33.807-8.292L20.018-25.423V-2.459H3.523V-37.377A68.51,68.51,0,0,1-3.593-44,105.823,105.823,0,0,0-10.445-6.463a106.075,106.075,0,0,0,4.4,30.244A88.164,88.164,0,0,0,10.075,42.437" transform="translate(10.445 43.996)" fill="#218dcb"/>
    </g>
    <g id="Group_13" data-name="Group 13" transform="translate(494.321 1309.215)">
      <path id="Path_5" data-name="Path 5" d="M10.185,0A95.711,95.711,0,0,0-10.559,2.287a67.23,67.23,0,0,1,4.1,9.738A106.1,106.1,0,0,1,84.746,117.056c0,.218-.016.43-.018.648a67.394,67.394,0,0,1,8.086,25.581,95,95,0,0,0,12.846-47.81A95.476,95.476,0,0,0,10.185,0" transform="translate(10.559)" fill="#9a88c1"/>
    </g>
    <g id="Group_14" data-name="Group 14" transform="translate(498.42 1321.242)">
      <path id="Path_6" data-name="Path 6" d="M20.426,31.364c.308.21.609.434.91.654,3.513-3.8,9.271-6.19,17.1-6.19,9.6,0,16.709,2.275,22.467,6.825L52.8,43.886A26.106,26.106,0,0,0,37.865,38.98c-2.489,0-3.627.853-3.627,2.061v.143c0,.739.436,1.328,1.666,1.874.269.108.542.2.809.316a31.362,31.362,0,0,0,4.137,1.008c12.726,2.346,21.257,6.043,21.257,16.068v.143c0,.4-.035.786-.061,1.177a67.921,67.921,0,0,1,7.966,11.391c0-.216.018-.43.018-.648A106.1,106.1,0,0,0-21.176-32.516,67.356,67.356,0,0,1-18.27-19.6a87.875,87.875,0,0,1,38.7,50.965" transform="translate(21.176 32.516)" fill="#4372ba"/>
    </g>
    <g id="Group_15" data-name="Group 15" transform="translate(452.561 1401.828)">
      <path id="Path_7" data-name="Path 7" d="M0,6.986H14.516V-7.243A67.439,67.439,0,0,1,0-1.226Z" transform="translate(0 7.243)" fill="#FFFFFF"/>
    </g>
    <g id="Group_16" data-name="Group 16" transform="translate(490.267 1334.156)">
      <path id="Path_8" data-name="Path 8" d="M0,22.769c5.534.1,10.3,1.257,13.923,3.483,3.55-2.758,8.626-4.43,15.157-4.43,8.632,0,15.241,1.857,20.675,5.536a87.88,87.88,0,0,0-38.7-50.965,68.506,68.506,0,0,1,.538,8.424A67.54,67.54,0,0,1,0,22.769" transform="translate(0 23.606)" fill="#FFFFFF"/>
    </g>
    <g id="Group_17" data-name="Group 17" transform="translate(483.715 1393.805)">
      <path id="Path_9" data-name="Path 9" d="M0,0V11.09H4.479a11.31,11.31,0,0,0,2.536-.283C8.294,9.89,9.6,9.009,10.941,8.18a5.148,5.148,0,0,0,.648-2.564V5.473C11.589,1.849,8.958,0,4.55,0Z" fill="#FFFFFF"/>
    </g>
    <g id="Group_18" data-name="Group 18" transform="translate(515.855 1392.738)">
      <path id="Path_10" data-name="Path 10" d="M1.782.014C1.548.006,1.3-.014,1.074-.014A4.855,4.855,0,0,0-1.847.7C-.649.44.56.208,1.782.014" transform="translate(1.847 0.014)" fill="#FFFFFF"/>
    </g>
    <g id="Group_19" data-name="Group 19" transform="translate(421.694 1424.444)">
      <path id="Path_11" data-name="Path 11" d="M20,18.158c-.014-.556-.043-1.106-.043-1.664a67.567,67.567,0,0,1,6.729-29.486H-16.036l-4.7-5.833A94.831,94.831,0,0,0-9.142,10.708c1.222-.1,2.454-.161,3.7-.161A46.118,46.118,0,0,1,20,18.158" transform="translate(20.731 18.825)" fill="#FFFFFF"/>
    </g>
    <g id="Group_20" data-name="Group 20" transform="translate(390.637 1483.031)">
      <path id="Path_12" data-name="Path 12" d="M1.613,0A46.344,46.344,0,0,0,78.724,48.576,106.054,106.054,0,0,1,1.613,0" transform="translate(1.672)" fill="#ff403f"/>
    </g>
    <g id="Group_21" data-name="Group 21" transform="translate(393.921 1475.171)">
      <path id="Path_13" data-name="Path 13" d="M38.518,9.839a88.082,88.082,0,0,1-16.732,1.613A87.364,87.364,0,0,1-35.89-10.2a46.17,46.17,0,0,0-4.043,7.86A106.05,106.05,0,0,0,37.18,46.234,46.187,46.187,0,0,0,48.789,22.742a68.043,68.043,0,0,1-10.271-12.9" transform="translate(39.933 10.2)" fill="#ff5352"/>
    </g>
    <g id="Group_22" data-name="Group 22" transform="translate(397.964 1453.977)">
      <path id="Path_14" data-name="Path 14" d="M17.342,0A46.3,46.3,0,0,0-17.979,21.2,87.374,87.374,0,0,0,39.7,42.847a88.083,88.083,0,0,0,16.732-1.615,67.978,67.978,0,0,1-3.8-7.131A95.941,95.941,0,0,1,17.342,0" transform="translate(17.979)" fill="#ff3e3d"/>
    </g>
    <g id="Group_23" data-name="Group 23" transform="translate(433.287 1453.817)">
      <path id="Path_15" data-name="Path 15" d="M17.325,16.822A67.542,67.542,0,0,1,11.174-9.829,46.1,46.1,0,0,0-14.263-17.44c-1.246,0-2.477.065-3.7.161a95.912,95.912,0,0,0,35.287,34.1" transform="translate(17.962 17.44)" fill="#e92c2c"/>
    </g>
    <g id="Group_24" data-name="Group 24" transform="translate(518.216 1452.5)">
      <path id="Path_16" data-name="Path 16" d="M28.416,12.573A106.373,106.373,0,0,1-29.46,61a68.028,68.028,0,0,0,12.017,1.084A67.853,67.853,0,0,0,50.409-5.772a68.758,68.758,0,0,0-.391-7.263,95.9,95.9,0,0,1-21.6,25.608" transform="translate(29.46 13.035)" fill="#ff9233"/>
    </g>
    <g id="Group_25" data-name="Group 25" transform="translate(482.641 1478.108)">
      <path id="Path_17" data-name="Path 17" d="M45.882,0A95.081,95.081,0,0,1-15.145,22.058a95.332,95.332,0,0,1-32.071-5.536,46.386,46.386,0,0,1,.342,5.536A46.462,46.462,0,0,1-47.568,30a67.665,67.665,0,0,0,35.574,18.42A106.373,106.373,0,0,0,45.882,0" transform="translate(47.568)" fill="#ff9837"/>
    </g>
    <g id="Group_26" data-name="Group 26" transform="translate(576.094 1426.92)">
      <path id="Path_18" data-name="Path 18" d="M0,25.133A95.9,95.9,0,0,0,21.6-.475a67.405,67.405,0,0,0-8.086-25.581A105.573,105.573,0,0,1,0,25.133" transform="translate(0 26.056)" fill="#c8672a"/>
    </g>
    <g id="Group_27" data-name="Group 27" transform="translate(555.501 1396.816)">
      <path id="Path_19" data-name="Path 19" d="M0,0C.24.106.5.212.809.316.542.2.269.108,0,0" fill="#b65e27"/>
    </g>
    <g id="Group_28" data-name="Group 28" transform="translate(482.702 1415.529)">
      <path id="Path_20" data-name="Path 20" d="M37.821,7.694A43.325,43.325,0,0,1,19.537,3.93,87.89,87.89,0,0,1-39.211,69.044q.171,1.034.291,2.08A95.292,95.292,0,0,0-6.849,76.66,95.081,95.081,0,0,0,54.178,54.6,105.575,105.575,0,0,0,67.7,3.414,67.932,67.932,0,0,0,59.728-7.977C59.1,1.767,50.674,7.694,37.821,7.694" transform="translate(39.211 7.977)" fill="#b65e27"/>
    </g>
    <g id="Group_29" data-name="Group 29" transform="translate(543.317 1407.673)">
      <path id="Path_21" data-name="Path 21" d="M0,2.306A28.532,28.532,0,0,0,17.2,7.984c2.986,0,4.265-.782,4.265-2.134V5.709c0-1.422-1.564-2.2-6.9-3.271C9.053,1.314,3.87-.039.033-2.391c.008.47.033.933.033,1.4,0,1.1-.026,2.2-.067,3.293" transform="translate(0 2.391)" fill="#b65e27"/>
    </g>
    <g id="Group_30" data-name="Group 30" transform="translate(490.728 1401.986)">
      <path id="Path_22" data-name="Path 22" d="M1.927,0C.585.827-.719,1.709-2,2.625A5.727,5.727,0,0,0,1.927,0" transform="translate(1.998)" fill="#8a4b29"/>
    </g>
    <g id="Group_31" data-name="Group 31" transform="translate(515.151 1392.605)">
      <path id="Path_23" data-name="Path 23" d="M0,1.077v.141c0,1.352,1.352,2.2,6.613,3.2C18.553,6.619,26.8,10.012,27.773,18.7l.175-.208.218.153c.039-1.094.067-2.189.067-3.293,0-.471-.026-.935-.033-1.4-3.923-2.4-6.438-5.847-6.438-11.167V2.641a16.746,16.746,0,0,1,.43-3.758L18.555,3.922A26.11,26.11,0,0,0,4.334-.956C3.112-.761,1.9-.53.705-.27A1.636,1.636,0,0,0,0,1.077" transform="translate(0 1.117)" fill="#8a4b29"/>
    </g>
    <g id="Group_32" data-name="Group 32" transform="translate(462.378 1413.435)">
      <path id="Path_24" data-name="Path 24" d="M28.808,8.723c-10.1,0-19.2-2.843-25.524-8.391L11.15-9.043C7.378-6.851,2.508-5.711-3.128-5.711h-5.4V7.8H-23.137a67.561,67.561,0,0,0-6.729,29.486c0,.558.029,1.108.043,1.664A46.352,46.352,0,0,1-9.543,70.072,87.89,87.89,0,0,0,49.206,4.958a32.3,32.3,0,0,1-3.23-1.737c-3.829,3.53-9.762,5.5-17.168,5.5" transform="translate(29.866 9.043)" fill="#8a4b29"/>
    </g>
    <g id="Group_33" data-name="Group 33" transform="translate(504.831 1409.41)">
      <path id="Path_25" data-name="Path 25" d="M7.058,1.518A62.375,62.375,0,0,1-3.995-1.574,16.35,16.35,0,0,1-7.317,1.52,28.54,28.54,0,0,0,9.688,7.064c2.986,0,4.265-.782,4.265-2.134V4.789c0-1.422-1.564-2.2-6.9-3.271" transform="translate(7.317 1.574)" fill="#8a4b29"/>
    </g>
    <g id="Group_34" data-name="Group 34" transform="translate(472.372 1493.42)">
      <path id="Path_26" data-name="Path 26" d="M0,.879a68.043,68.043,0,0,0,10.271,12.9,46.461,46.461,0,0,0,.693-7.947A46.384,46.384,0,0,0,10.622.3C9.554-.082,8.5-.493,7.45-.911,5.008-.212,2.524.392,0,.879" transform="translate(0 0.911)" fill="#bd6027"/>
    </g>
    <g id="Group_35" data-name="Group 35" transform="translate(468.573 1488.079)">
      <path id="Path_27" data-name="Path 27" d="M0,0A67.613,67.613,0,0,0,3.8,7.131c2.524-.487,5.006-1.09,7.45-1.79A94.964,94.964,0,0,1,0,0" fill="#a25528"/>
    </g>
    <g id="Group_36" data-name="Group 36" transform="translate(479.821 1492.551)">
      <path id="Path_28" data-name="Path 28" d="M0,.427c1.051.416,2.1.827,3.173,1.208Q3.049.589,2.88-.443C1.927-.135.967.15,0,.427" transform="translate(0 0.443)" fill="#934f29"/>
    </g>
    <g id="Group_37" data-name="Group 37" transform="translate(462.423 1461.427)">
      <path id="Path_29" data-name="Path 29" d="M0,0A67.534,67.534,0,0,0,6.151,26.651,95.138,95.138,0,0,0,17.4,31.995c.967-.277,1.927-.564,2.88-.872A46.356,46.356,0,0,0,0,0" fill="#83492a"/>
    </g>
    <g id="Group_38" data-name="Group 38" transform="translate(366.158 1274.728)">
      <path id="Path_30" data-name="Path 30" d="M33.315,0a67.854,67.854,0,0,0-59.4,100.652,87.761,87.761,0,0,1,81.03-54.047,88.725,88.725,0,0,1,9.332.5c.737.079,1.464.183,2.194.279.507-.295,1.012-.589,1.523-.874a94.851,94.851,0,0,1,25.634-9.736A67.832,67.832,0,0,0,33.315,0" transform="translate(34.539)" fill="#6dd2c9"/>
    </g>
    <g id="Group_39" data-name="Group 39" transform="translate(374.612 1321.333)">
      <path id="Path_31" data-name="Path 31" d="M44.366.245a88.725,88.725,0,0,0-9.332-.5A87.761,87.761,0,0,0-46,53.793a68.073,68.073,0,0,0,9.685,13.359A106.213,106.213,0,0,1,44.366.245" transform="translate(45.996 0.254)" fill="#2b8aa7"/>
    </g>
    <g id="Group_40" data-name="Group 40" transform="translate(384.297 1321.832)">
      <path id="Path_32" data-name="Path 32" d="M11.138,28.81,24.1,44.893A95.456,95.456,0,0,1,71.324-29.589c-.731-.094-1.46-.2-2.2-.279A106.211,106.211,0,0,0-11.547,37.039a68.293,68.293,0,0,0,7.114,6.619V28.81Z" transform="translate(11.547 29.868)" fill="#23859f"/>
    </g>
    <g id="Group_41" data-name="Group 41" transform="translate(468.69 1311.501)">
      <path id="Path_33" data-name="Path 33" d="M7.288,4.261A106.913,106.913,0,0,1,22.176,5.322a67.694,67.694,0,0,0-4.1-9.74A94.786,94.786,0,0,0-7.556,5.318,106.615,106.615,0,0,1,7.288,4.261" transform="translate(7.556 4.418)" fill="#4370a0"/>
    </g>
    <g id="Group_42" data-name="Group 42" transform="translate(467.167 1320.18)">
      <path id="Path_34" data-name="Path 34" d="M.748.519C.237.8-.268,1.1-.775,1.393A87.211,87.211,0,0,1,33.383,13.438,67.357,67.357,0,0,0,30.477.523,106.884,106.884,0,0,0,15.592-.538,106.9,106.9,0,0,0,.748.519" transform="translate(0.775 0.538)" fill="#2c6b92"/>
    </g>
    <g id="Group_43" data-name="Group 43" transform="translate(419.94 1322.111)">
      <path id="Path_35" data-name="Path 35" d="M0,36.569l4.742,5.886V20.486H32.62V47.822a67.4,67.4,0,0,0,14.516-6.017V20.486h22.4c.269,0,.527.018.794.022a67.546,67.546,0,0,0,11.6-37.951,68.531,68.531,0,0,0-.538-8.424A87.211,87.211,0,0,0,47.226-37.913,95.461,95.461,0,0,0,0,36.569" transform="translate(0 37.913)" fill="#FFFFFF"/>
    </g>
    <g id="Group_44" data-name="Group 44" transform="translate(333 1479.084)">
      <path id="Path_36" data-name="Path 36" d="M7.622,0A15.524,15.524,0,1,0,23.146,15.524,15.524,15.524,0,0,0,7.622,0" transform="translate(7.902 0)" fill="#6dd2c9"/>
    </g>
    <g id="Group_45" data-name="Group 45" transform="translate(552.596 1277.434)">
      <path id="Path_37" data-name="Path 37" d="M9.091,18.181A18.515,18.515,0,0,0,27.605-.335,18.515,18.515,0,0,0,9.091-18.849,18.516,18.516,0,0,0-9.425-.335,18.517,18.517,0,0,0,9.091,18.181" transform="translate(9.425 18.849)" fill="#ff6e70"/>
    </g>
    <g id="Group_46" data-name="Group 46" transform="translate(499.503 1546.517)">
      <path id="Path_38" data-name="Path 38" d="M4.785,0a9.747,9.747,0,1,0,9.748,9.746A9.746,9.746,0,0,0,4.785,0" transform="translate(4.961)" fill="#ffeb6e"/>
    </g>
    <g id="Group_47" data-name="Group 47" transform="translate(616.316 1444.07)">
      <path id="Path_39" data-name="Path 39" d="M4.785,0a9.747,9.747,0,1,0,9.746,9.746A9.746,9.746,0,0,0,4.785,0" transform="translate(4.961)" fill="#5697d1"/>
    </g>
    <g id="Group_48" data-name="Group 48" transform="translate(338.777 1359.788)">
      <path id="Path_40" data-name="Path 40" d="M4.785,9.571A9.749,9.749,0,0,0,14.533-.177,9.748,9.748,0,0,0,4.785-9.923,9.746,9.746,0,0,0-4.961-.177,9.748,9.748,0,0,0,4.785,9.571" transform="translate(4.961 9.923)" fill="#957ebf"/>
    </g>
  </g>
</svg>
